# xmcd CD database file
#
# Track frame offsets:
#	150
#	14077
#	29022
#	43674
#	56877
#	70199
#	82662
#	98645
#	114956
#	130411
#	147001
#	162428
#	175575
#	192048
#
# Disc length: 2783 seconds
#
# Revision: 3
# Processed by: cddbd v1.5.2PL0 Copyright (c) Steve Scherf et al.
# Submitted via: CDex 2.23
#
DISCID=b80add0e
DTITLE=Michael Buble - To Be Loved
DYEAR=2013
DGENRE=Swing
TTITLE0=You make me feel so young
TTITLE1=It's a beautiful day
TTITLE2=To love somebody
TTITLE3=Who's lovin' you
TTITLE4=Something stupid - Featuring Reese Witherspoon
TTITLE5=Come dance with me
TTITLE6=Close your eyes
TTITLE7=After all - Featuring Bryan Adams
TTITLE8=Have I told you lately that I love you - with Naturally 7
TTITLE9=To be loved
TTITLE10=You've got a friend in me
TTITLE11=Nevertheless (I'm in love with you) - Featuring The Puppini Sisters
TTITLE12=I got it easy
TTITLE13=Young at heart
EXTD=YEAR: 2013
EXTT0=
EXTT1=
EXTT2=
EXTT3=
EXTT4=
EXTT5=
EXTT6=
EXTT7=
EXTT8=
EXTT9=
EXTT10=
EXTT11=
EXTT12=
EXTT13=
PLAYORDER=
